# xmcd
# 
# Track frame offsets:
#     150
#     24519
#     49322
#     69503
#     93872
# 
# Disc length: 1579
# 
# Revision: 0
# Processed by: cddbd v1.5.2PL0 Copyright (c) Steve Scherf et al.
# Submitted via: BonkEnc v1.0.8
# 
DISCID=39062905
DTITLE=flumpool - 君に届け
DYEAR=2010
DGENRE=JPop
TTITLE0=君に届け
TTITLE1=僕の存在
TTITLE2=Quville
TTITLE3=君に届け(instrumental)
TTITLE4=僕の存在(instrumental)
EXTD=
EXTT0=
EXTT1=
EXTT2=
EXTT3=
EXTT4=
PLAYORDER=
